<svg width="722" height="723" viewBox="0 0 722 723" fill="none" xmlns="http://www.w3.org/2000/svg">
<path d="M717.489 361.39C717.489 558.214 557.931 717.772 361.106 717.772C164.282 717.772 4.72358 558.214 4.72358 361.39C4.72358 164.565 164.282 5.00702 361.106 5.00702C557.931 5.00702 717.489 164.565 717.489 361.39Z" fill="url(#paint0_linear_3306_15443)" stroke="url(#paint1_linear_3306_15443)" stroke-width="9.02235"/>
<path fill-rule="evenodd" clip-rule="evenodd" d="M304.265 263.648C304.265 244.215 320.019 228.461 339.452 228.461H370.729C390.163 228.461 405.917 244.215 405.917 263.648V279.286H304.265V263.648ZM280.807 279.286V263.648C280.807 231.26 307.063 205.003 339.452 205.003H370.729C403.118 205.003 429.375 231.26 429.375 263.648V279.286H448.924C483.472 279.286 511.479 307.293 511.479 341.841V466.951C511.479 501.499 483.472 529.506 448.924 529.506H261.26C226.711 529.506 198.705 501.499 198.705 466.951V341.841C198.705 307.293 226.711 279.286 261.26 279.286H280.807ZM355.095 345.751C361.573 345.751 366.824 351.002 366.824 357.48V392.667H402.011C408.489 392.667 413.74 397.918 413.74 404.396C413.74 410.874 408.489 416.125 402.011 416.125H366.824V451.312C366.824 457.79 361.573 463.041 355.095 463.041C348.617 463.041 343.366 457.79 343.366 451.312V416.125H308.179C301.701 416.125 296.45 410.874 296.45 404.396C296.45 397.918 301.701 392.667 308.179 392.667H343.366V357.48C343.366 351.002 348.617 345.751 355.095 345.751Z" fill="white"/>
<defs>
<linearGradient id="paint0_linear_3306_15443" x1="250.833" y1="570.708" x2="733.493" y2="528.849" gradientUnits="userSpaceOnUse">
<stop stop-color="#00B5F1"/>
<stop offset="1" stop-color="#00E0FF"/>
</linearGradient>
<linearGradient id="paint1_linear_3306_15443" x1="250.833" y1="570.708" x2="733.493" y2="528.849" gradientUnits="userSpaceOnUse">
<stop stop-color="#00B5F1"/>
<stop offset="1" stop-color="#00E0FF"/>
</linearGradient>
</defs>
</svg>
