<svg width="722" height="723" viewBox="0 0 722 723" fill="none" xmlns="http://www.w3.org/2000/svg">
<g clip-path="url(#clip0_3306_15460)">
<path d="M717.297 361.557C717.297 558.387 557.735 717.95 360.904 717.95C164.074 717.95 4.5113 558.387 4.5113 361.557C4.5113 164.727 164.074 5.16413 360.904 5.16413C557.735 5.16413 717.297 164.727 717.297 361.557Z" fill="url(#paint0_linear_3306_15460)" stroke="url(#paint1_linear_3306_15460)" stroke-width="9.0226"/>
<path d="M414.666 425.681L412.671 509.503L356.788 547.424L301.904 510.502L298.91 425.681C298.91 425.681 316.872 408.717 311.883 391.752H399.698C396.704 408.717 414.666 425.681 414.666 425.681Z" fill="url(#paint2_linear_3306_15460)"/>
<path d="M535.412 568.38V539.441C535.412 511.5 520.443 485.555 496.494 471.585L455.581 448.633L414.667 425.681L378.743 512.498L364.773 453.623L374.752 442.646H338.828L348.807 453.623L334.837 512.498L299.911 425.681L258.998 448.633L218.085 471.584C194.135 485.554 179.167 511.5 179.167 539.44V568.38H535.412Z" fill="white"/>
<path d="M297.811 313.744C293.607 303.555 284.417 297.681 277.285 300.623C270.153 303.566 267.779 314.211 271.983 324.4C276.187 334.589 285.377 340.463 292.509 337.521C299.641 334.578 302.015 323.933 297.811 313.744Z" fill="white"/>
<path d="M414.928 313.771C410.724 323.96 413.098 334.606 420.231 337.548C427.363 340.491 436.552 334.617 440.756 324.428C444.96 314.239 442.586 303.594 435.454 300.651C428.322 297.708 419.132 303.582 414.928 313.771Z" fill="white"/>
<path d="M436.618 285.976C436.618 289.968 436.618 294.957 435.62 299.946C429.632 346.847 396.702 422.687 356.786 422.687C316.87 422.687 283.94 346.847 277.952 298.948C276.954 294.956 276.954 289.967 276.954 285.975C276.954 242.068 312.878 206.144 356.785 206.144C400.692 206.144 436.618 242.069 436.618 285.976Z" fill="white"/>
<path d="M279.951 313.917C277.955 302.941 278.952 287.973 285.938 279.989C285.938 279.989 279.951 229.096 316.873 232.09C316.873 232.09 346.81 242.069 402.691 232.09C402.691 232.09 425.643 231.092 421.652 255.041C421.652 255.041 415.664 276.995 427.639 281.984L432.628 312.919L437.617 289.968C446.598 248.057 436.619 206.145 397.701 187.185C396.703 187.185 396.703 187.185 396.703 187.185C401.692 180.199 411.671 183.193 411.671 183.193C345.811 141.282 301.904 180.199 301.904 180.199C255.003 223.109 269.971 273.003 269.971 273.003C264.982 290.965 279.951 313.917 279.951 313.917Z" fill="#12263F"/>
<path d="M210.098 459.609L251.011 436.658L287.933 415.702V414.704C291.925 409.715 294.919 403.727 297.913 397.74C288.932 383.77 280.949 367.803 274.961 349.841C267.976 345.849 261.989 338.865 258.995 330.881C255.003 321.9 255.003 311.921 257.997 302.94C254.005 291.963 252.009 281.984 254.005 273.003C253.007 267.016 251.011 254.043 253.007 239.074C227.062 238.076 212.093 252.047 212.093 252.047C176.169 284.978 187.146 322.897 187.146 322.897C185.15 330.88 188.144 339.861 192.135 346.847C189.141 349.84 188.143 356.826 191.137 362.813C193.132 368.801 198.122 371.794 202.113 372.793C207.102 387.761 214.088 402.729 222.071 414.704C225.064 427.677 212.091 440.649 212.091 440.649L180.159 458.611L147.231 475.576C128.27 486.552 117.294 505.512 117.294 527.466V537.446H163.197C164.195 505.512 182.157 475.576 210.098 459.609Z" fill="#3295CC"/>
<path d="M566.348 475.575L535.413 457.613L503.481 439.651C503.481 439.651 490.508 426.678 493.502 413.706C501.484 401.732 508.47 386.763 513.459 371.795C517.451 370.797 522.44 366.806 524.436 361.816C527.429 353.833 525.434 345.849 520.444 343.854L522.439 335.871C529.425 303.939 521.441 271.008 492.502 257.037C491.504 256.039 490.507 256.039 490.507 256.039C494.499 251.05 501.483 253.045 501.483 253.045C483.521 241.071 467.555 238.077 453.585 238.077C457.576 255.041 456.578 274.001 452.586 293.959V295.954C458.574 304.935 460.569 317.908 454.582 329.883C451.588 337.865 445.601 344.851 438.615 348.843C432.628 366.805 424.645 382.771 415.664 396.742C418.658 402.729 421.651 408.716 425.643 413.705V414.704L502.481 458.611C531.419 474.577 548.384 504.514 549.381 537.444H596.285V527.465C596.285 506.509 584.31 486.552 566.348 475.575Z" fill="#3295CC"/>
<path d="M479.528 516.489H460.568V497.529H447.596V516.489H428.636V529.462H447.596V548.421H460.568V529.462H479.528V516.489Z" fill="url(#paint3_linear_3306_15460)"/>
</g>
<defs>
<linearGradient id="paint0_linear_3306_15460" x1="250.628" y1="570.881" x2="733.302" y2="529.02" gradientUnits="userSpaceOnUse">
<stop stop-color="#00B5F1"/>
<stop offset="1" stop-color="#00E0FF"/>
</linearGradient>
<linearGradient id="paint1_linear_3306_15460" x1="250.628" y1="570.881" x2="733.302" y2="529.02" gradientUnits="userSpaceOnUse">
<stop stop-color="#00B5F1"/>
<stop offset="1" stop-color="#00E0FF"/>
</linearGradient>
<linearGradient id="paint2_linear_3306_15460" x1="339.103" y1="514.733" x2="416.769" y2="509.724" gradientUnits="userSpaceOnUse">
<stop stop-color="#00B5F1"/>
<stop offset="1" stop-color="#00E0FF"/>
</linearGradient>
<linearGradient id="paint3_linear_3306_15460" x1="446.307" y1="537.734" x2="480.339" y2="534.782" gradientUnits="userSpaceOnUse">
<stop stop-color="#00B5F1"/>
<stop offset="1" stop-color="#00E0FF"/>
</linearGradient>
<clipPath id="clip0_3306_15460">
<rect width="721.808" height="721.808" fill="white" transform="translate(0 0.652832)"/>
</clipPath>
</defs>
</svg>
