<svg width="723" height="723" viewBox="0 0 723 723" fill="none" xmlns="http://www.w3.org/2000/svg">
<path d="M717.857 361.39C717.857 558.214 558.299 717.772 361.474 717.772C164.649 717.772 5.09125 558.214 5.09125 361.39C5.09125 164.565 164.649 5.00702 361.474 5.00702C484.626 5.00702 593.192 67.4695 657.215 162.463C695.506 219.275 717.857 287.715 717.857 361.39Z" fill="url(#paint0_linear_3306_15451)" stroke="url(#paint1_linear_3306_15451)" stroke-width="9.02235"/>
<path d="M213.832 328.581C213.832 319.521 221.176 312.176 230.236 312.176H279.449V525.432H230.236C221.176 525.432 213.832 518.087 213.832 509.027V328.581Z" fill="white"/>
<path d="M443.496 312.176H492.709C501.769 312.176 509.113 319.52 509.113 328.58V509.027C509.113 518.087 501.769 525.431 492.709 525.431H443.496V312.176Z" fill="white"/>
<path d="M476.303 525.432H226.052C219.703 525.432 214.384 520.284 214.384 513.764L213.835 320.379C216.752 314.373 221.557 312.485 228.249 312.485C246.781 313 249.079 312.657 267.611 312.657C269.842 312.657 272.073 312.657 274.303 312.657V255.002C271.73 255.002 269.327 255.002 267.097 255.002C259.546 254.83 255.771 251.742 255.6 244.363C255.428 232.352 255.257 220.169 255.6 208.157C255.771 202.151 260.576 197.347 266.582 197.347C329.899 197.347 393.046 197.347 456.363 197.347C463.57 197.347 467.345 200.779 467.517 207.642C467.86 219.997 467.86 232.352 467.517 244.878C467.345 251.57 463.57 254.83 456.878 255.002C454.133 255.002 451.559 255.002 448.813 255.002V312.657C451.387 312.657 457.668 312.177 459.899 312.177C463.778 312.177 457.771 312.177 476.303 312.177C486.942 312.177 484.333 317.805 484.333 328.615C484.333 390.389 484.333 452.162 484.504 513.764C484.333 519.598 480.936 522 476.303 525.432ZM428.051 506.042V255.345H294.895V505.87H313.083C313.083 484.078 313.083 412.112 313.083 390.835C313.083 380.367 316.687 377.45 327.669 377.794C349.118 378.48 370.739 378.823 392.188 377.794C406.43 377.107 409.862 379.338 409.862 391.864C409.862 410.911 409.862 480.475 409.862 499.35C409.862 501.581 410.033 503.811 410.205 506.214H428.051V506.042ZM226.052 505.87H274.303V332.39H226.052V505.87ZM464.085 334.449L448.642 332.219V505.699H464.085V334.449ZM447.44 216.908H275.676V235.44H447.44V216.908ZM333.331 505.87H351.177V397.184H333.331V505.87ZM371.94 397.184V505.87H389.785V397.184H371.94Z" fill="white"/>
<path d="M349.683 323.507C340.846 322.522 328.866 325.871 328.669 312.475C328.473 298.487 340.846 301.836 349.683 300.851C351.058 291.789 347.523 278.984 362.056 279.378C375.411 279.772 371.876 291.986 373.25 300.851C382.088 301.836 394.854 298.29 394.264 312.869C393.675 325.674 382.088 322.719 373.447 323.31C371.679 332.175 375.803 344.783 360.485 344.98C352.826 345.177 350.862 340.646 349.683 323.507Z" fill="white"/>
<defs>
<linearGradient id="paint0_linear_3306_15451" x1="251.201" y1="570.708" x2="733.861" y2="528.849" gradientUnits="userSpaceOnUse">
<stop stop-color="#00B5F1"/>
<stop offset="1" stop-color="#00E0FF"/>
</linearGradient>
<linearGradient id="paint1_linear_3306_15451" x1="251.201" y1="570.708" x2="733.861" y2="528.849" gradientUnits="userSpaceOnUse">
<stop stop-color="#00B5F1"/>
<stop offset="1" stop-color="#00E0FF"/>
</linearGradient>
</defs>
</svg>
